<?xml version="1.0" encoding="utf-8"?>
<svg xmlns="http://www.w3.org/2000/svg" width="256px" height="128px" viewBox="0 0 384 128">
  <rect width="374" height="118" x="5" y="5" ry="10" stroke="#4169E1" stroke-width="10" fill="none"/>
  <path d="M 324 30 L 294 65 L 314 65 L 314 98 L 334 98 L 334 65 L 354 65 L 324 30 Z" style="stroke-width: 1px; fill: #4169E1; stroke: #4169E1;"/>
  <path d="M 125 98 L 125 30 L 145 30 L 165 55 L 185 30 L 205 30 L 205 98 L 185 98 L 185 59 L 165 84 L 145 59 L 145 98 L 125 98 Z" style="stroke-width: 1px; fill: #4169E1; stroke: #4169E1;"/>
  <path d="M 30 30 L 110 30 L 110 50 L 80 50 L 80 98 L 60 98 L 60 50 L 30 50 L 30 30 Z" style="stroke-width: 1px; fill: #4169E1; stroke: #4169E1;"/>
  <path d="M 220 30 L 240 30 L 240 98 L 220 98 L 220 30 Z" style="stroke-width: 1px; fill: #4169E1; stroke: #4169E1;"/>
  <path d="M 270 30 L 290 30 L 260 64 L 240 64 L 270 30 Z" style="stroke-width: 1px; fill: #4169E1; stroke: #4169E1;"/>
  <path d="M 240 64 L 260 64 L 290 98 L 270 98 L 240 64 Z" style="stroke-width: 1px; fill: #4169E1; stroke: #4169E1;"/>
  <path style="stroke: #4169E1; fill: #4169E1; " d="M 240 64 C 240 64 260 64 260 64"/>
</svg>
